<?xml version="1.0" encoding="UTF-8"?>
<svg id="Camada_1" data-name="Camada 1" xmlns="http://www.w3.org/2000/svg" viewBox="0 0 1024 476.63">
  <defs>
    <style>
      .cls-1 {
        fill: #cda959;
      }

      .cls-2 {
        fill: #a58950;
      }
    </style>
  </defs>
  <g>
    <path d="M838.76,316.66c.36.23.17,3.22,4.78,4.74,11.64,3.84,20.85-4.68,18.21-16.74-12.08,11.59-31.61,6.71-37.86-8.63-10.66-26.19,11.65-56.22,37.86-36.37v-5h16.01v56.5c0,4.63-1.03,7.89-1.72,9.39-9.02,19.75-49.36,20.34-53.28-3.89h16,0ZM847.52,265.88c-19.26,2.81-12.32,43.93,8.59,31.63,11.81-6.95,7.88-34.03-8.59-31.63Z"/>
    <path d="M813.76,233.66v78l-14.05-.47-.96-6.53c-14.93,16.18-38.88,5.08-40.98-15.51-1.98-19.44,6.21-37.92,28.49-35.49,5.93.65,8.31,3.38,12.5,7v-27h15ZM783.51,265.86c-15.01,2.5-14.51,31.09-1.02,33.55,23.23,4.23,21.77-37.01,1.02-33.55Z"/>
    <path d="M570.56,206.66h-16v-6c-7.53,6.21-14.81,7.97-24.54,7.04-14.52-1.38-20.86-17.51-13.3-29.38,8.04-12.63,35.81-7.68,37.73-13.3,4.06-11.9-23.1-15.39-22.89-1.36h-16c.31-23.59,40.25-27.97,50.83-12.33,1.01,1.5,4.17,5.74,4.17,14.05v41.28h0ZM554.56,176.66c-5.77,3.11-22.42.46-23.97,8.52-3.12,16.19,21.37,13.52,23.75,1.74.67-3.32.03-6.91.22-10.27h0Z"/>
    <path d="M506.56,186.66c-3.94,19.55-27.93,26.11-44.68,18.18-25.06-11.85-21.56-57.73,7.44-61.92,25.13-3.63,39.04,11.24,38.24,35.74h-45c-1.5,13.32,13.41,22.66,24.03,13.53,1.3-1.12,4.11-5.53,4.47-5.53h15.5ZM462.56,168.66h28c-1.33-19.06-26.99-19.16-28,0Z"/>
    <path d="M602.3,142.89c17.06-2.86,32.74,3.14,38.3,20.23,8.64,26.54-10.37,50.03-38.29,44.28-31.97-6.58-31-59.32-.02-64.51h.01ZM607.3,155.9c-17.07,2.77-17.53,42.53,6.7,38.69,16.58-2.63,17.48-42.61-6.7-38.69Z"/>
    <path d="M436.76,311.66h-15v-6c-9.44,10.85-33.77,9.71-35.91-6.58-1.24-9.43,2.59-17.04,11.89-19.93,4.62-1.43,22.62-1.28,23.88-5.16,3.69-11.34-19.97-13.25-19.87-1.32h-14c-1.18-21.53,35.67-25.02,45.43-10.93.71,1.03,3.57,4.97,3.57,10.93v39h0ZM419.42,298.31c3.62-3.66,2.1-8.98,2.33-13.65-4.5,2.96-18.97.65-20.8,6.7-3.57,11.8,12.43,13.05,18.46,6.96h.01Z"/>
    <path d="M938.76,286.66h-40c-1.34,10.62,10.03,18.36,19.35,12.85,3.25-1.92,4.27-5.85,4.65-5.85h15c-3.55,18.77-27.21,23.81-42.14,14.64-19.66-12.07-15.99-49.79,8.1-54.19,22.87-4.18,36.08,10.46,35.05,32.55h0ZM922.76,276.66c.07-15.86-23.12-15.44-24.02-.51-.19,3.15-.48.51-.02.51h24.04Z"/>
    <polygon points="401.56 120.66 401.56 191.66 440.56 191.66 440.56 206.66 384.56 206.66 384.56 120.66 401.56 120.66"/>
    <path d="M522.76,286.66h-40c-.04,10.59,10.07,18.51,19.71,13.21,5.29-2.91,5.36-6.21,5.79-6.21h14.5c-9.77,29.5-53.55,23.56-55.04-8.45-2.05-44.12,60.21-41.32,55.04,1.45ZM507.76,276.66c-2.58-16.05-22.16-16.02-25,0h25Z"/>
    <path d="M580.76,311.66h-15v-38.5c0-5.9-12.09-7.02-19.56.44-3.21,3.21-2.47,6.56-2.47,38.06h-14.97v-57h14.97v6c11.32-12.09,34.96-8.86,37.03,9.5v41.5Z"/>
    <polygon points="391.94 247.66 369.76 247.66 370.76 310.66 354.76 310.66 354.76 247.66 332.76 247.66 332.76 233.66 391.94 233.66 391.94 247.66"/>
    <path d="M609.76,239.66v14.99h11.02v12.01h-12.02v29.44c0,6.41,13,4.53,13,4.53v11.02c-15.34,0-27,.15-27-9.49v-35.5h-8.01v-12.01h8.01v-14.99h15Z"/>
    <rect x="445.76" y="233.66" width="15" height="78"/>
    <path d="M729.76,253.66v15c-4.55-1.7-19-.59-19,7.5v35.5h-15v-57h14l.5,8c4.35-7.67,10.95-9.92,19.5-9Z"/>
    <polygon points="750.76 311.66 734.76 311.66 734.76 254.66 749.75 254.66 750.76 311.66"/>
    <rect x="734.76" y="233.66" width="15" height="14"/>
    <path d="M677.76,271.64c12.56-12.88,9.9-30.98-5.52-36.33-10.11-3.51-43.48-1.65-43.48-1.65v77s39.73,4.61,51.5-4c11.88-8.7,10.91-28.42-2.5-35.01h0ZM663.26,298.66h-19.5c.6-.6,1-1.29,1-1.5v-19.5h19.5c10.8,0,10.8,21-1,21ZM663.26,265.66h-19.5c.6-.6,1-1.29,1-1.5v-17.5h19.5c10.8,0,10.8,19-1,19Z"/>
  </g>
  <g>
    <path d="M119.1,379.45l5.49,1.39c-1.15,4.51-3.22,7.95-6.21,10.32-3,2.37-6.65,3.55-10.97,3.55s-8.11-.91-10.91-2.73-4.94-4.46-6.4-7.91c-1.46-3.45-2.2-7.16-2.2-11.13,0-4.33.82-8.09,2.47-11.31s4-5.66,7.05-7.33,6.41-2.5,10.06-2.5c4.16,0,7.64,1.06,10.48,3.17s4.81,5.08,5.92,8.92l-5.4,1.28c-.96-3.02-2.36-5.22-4.19-6.6s-4.14-2.07-6.91-2.07c-3.19,0-5.85.77-7.99,2.29s-3.65,3.58-4.52,6.16c-.86,2.58-1.3,5.23-1.3,7.97,0,3.53.51,6.61,1.55,9.24,1.02,2.63,2.63,4.6,4.8,5.91,2.17,1.3,4.52,1.95,7.05,1.95,3.08,0,5.68-.88,7.81-2.66,2.13-1.77,3.58-4.4,4.33-7.9h.01Z"/>
    <path d="M131.3,378.97c0-5.56,1.55-9.69,4.65-12.38,2.59-2.23,5.73-3.34,9.45-3.34,4.14,0,7.51,1.35,10.14,4.06,2.62,2.71,3.93,6.45,3.93,11.22,0,3.87-.58,6.92-1.74,9.13s-2.85,3.94-5.06,5.17-4.64,1.84-7.26,1.84c-4.21,0-7.61-1.35-10.21-4.05s-3.89-6.59-3.89-11.66h-.01ZM136.54,378.97c0,3.85.84,6.74,2.52,8.66,1.68,1.92,3.79,2.88,6.34,2.88s4.64-.96,6.31-2.89c1.68-1.93,2.52-4.86,2.52-8.8,0-3.72-.84-6.53-2.54-8.45-1.68-1.92-3.79-2.88-6.3-2.88s-4.66.95-6.34,2.86c-1.68,1.91-2.52,4.79-2.52,8.63h.01Z"/>
    <path d="M167.94,394v-30.07h4.58v4.27c2.21-3.3,5.39-4.96,9.57-4.96,1.81,0,3.47.33,5,.98,1.52.65,2.65,1.5,3.41,2.56.76,1.06,1.28,2.31,1.59,3.76.19.95.29,2.59.29,4.96v18.49h-5.1v-18.29c0-2.08-.2-3.62-.6-4.66s-1.1-1.85-2.11-2.46c-1.01-.62-2.2-.92-3.55-.92-2.17,0-4.04.69-5.62,2.07-1.58,1.38-2.37,4-2.37,7.85v16.43h-5.11Z"/>
    <path d="M202.68,394v-30.07h4.58v4.27c2.21-3.3,5.39-4.96,9.57-4.96,1.81,0,3.47.33,5,.98,1.52.65,2.65,1.5,3.41,2.56.76,1.06,1.28,2.31,1.59,3.76.19.95.29,2.59.29,4.96v18.49h-5.1v-18.29c0-2.08-.2-3.62-.6-4.66s-1.1-1.85-2.11-2.46c-1.01-.62-2.2-.92-3.55-.92-2.17,0-4.04.69-5.62,2.07-1.58,1.38-2.37,4-2.37,7.85v16.43h-5.11Z"/>
    <path d="M258.01,384.32l5.27.65c-.83,3.08-2.37,5.47-4.62,7.16s-5.12,2.55-8.61,2.55c-4.4,0-7.89-1.35-10.46-4.06-2.58-2.71-3.87-6.51-3.87-11.39s1.3-8.99,3.91-11.78c2.6-2.79,5.98-4.19,10.14-4.19s7.3,1.36,9.85,4.1,3.83,6.59,3.83,11.55c0,.3,0,.76-.03,1.36h-22.43c.19,3.3,1.12,5.83,2.8,7.59s3.77,2.63,6.29,2.63c1.87,0,3.46-.49,4.79-1.47s2.37-2.55,3.14-4.7h0ZM241.27,376.08h16.79c-.22-2.53-.86-4.42-1.93-5.69-1.62-1.96-3.73-2.94-6.31-2.94-2.35,0-4.31.78-5.91,2.35s-2.47,3.67-2.64,6.29h0Z"/>
    <path d="M291.79,382.99l5.01.65c-.54,3.45-1.95,6.16-4.2,8.11-2.26,1.95-5.02,2.93-8.31,2.93-4.11,0-7.42-1.34-9.92-4.04-2.5-2.69-3.75-6.54-3.75-11.57,0-3.24.53-6.09,1.61-8.53s2.72-4.26,4.91-5.48,4.59-1.82,7.17-1.82c3.26,0,5.94.83,8.02,2.47,2.08,1.65,3.41,4,4,7.04l-4.96.77c-.47-2.01-1.31-3.54-2.5-4.56s-2.64-1.52-4.35-1.52c-2.57,0-4.66.92-6.26,2.76s-2.41,4.75-2.41,8.73.78,6.97,2.32,8.8,3.57,2.75,6.05,2.75c2,0,3.67-.62,5.01-1.84,1.34-1.23,2.19-3.11,2.55-5.66h.01Z"/>
    <path d="M314.78,389.45l.74,4.5c-1.44.3-2.72.45-3.85.45-1.85,0-3.28-.3-4.31-.87-1.02-.59-1.74-1.35-2.15-2.31s-.62-2.96-.62-6.01v-17.3h-3.74v-3.97h3.74v-7.45l5.06-3.06v10.51h5.13v3.97h-5.13v17.59c0,1.45.09,2.39.27,2.8s.47.75.87.99c.41.25.98.37,1.74.37.56,0,1.31-.06,2.24-.2h.01Z"/>
    <path d="M322.28,358.35v-5.86h5.1v5.86h-5.1ZM322.28,394v-30.07h5.1v30.07h-5.1Z"/>
    <path d="M337.63,394v-30.07h4.58v4.27c2.21-3.3,5.39-4.96,9.57-4.96,1.81,0,3.47.33,5,.98,1.52.65,2.65,1.5,3.41,2.56.76,1.06,1.28,2.31,1.59,3.76.19.95.29,2.59.29,4.96v18.49h-5.1v-18.29c0-2.08-.2-3.62-.6-4.66s-1.1-1.85-2.11-2.46c-1.01-.62-2.2-.92-3.55-.92-2.17,0-4.04.69-5.62,2.07-1.58,1.38-2.37,4-2.37,7.85v16.43h-5.11Z"/>
    <path d="M371.44,396.49l4.96.74c.2,1.52.78,2.64,1.73,3.34,1.27.94,3,1.42,5.18,1.42,2.36,0,4.18-.47,5.47-1.42,1.28-.95,2.15-2.26,2.6-3.97.27-1.03.38-3.22.37-6.54-2.23,2.62-5,3.93-8.32,3.93-4.14,0-7.33-1.49-9.59-4.48-2.26-2.98-3.4-6.56-3.4-10.73,0-2.87.52-5.51,1.56-7.94,1.03-2.42,2.55-4.3,4.52-5.62,1.97-1.32,4.28-1.98,6.95-1.98,3.55,0,6.47,1.44,8.77,4.31v-3.62h4.7v25.99c0,4.68-.48,7.99-1.43,9.96-.95,1.95-2.46,3.5-4.53,4.63s-4.62,1.69-7.63,1.69c-3.59,0-6.48-.81-8.7-2.42-2.21-1.61-3.27-4.04-3.2-7.29v.02ZM375.66,378.42c0,3.94.78,6.82,2.35,8.63s3.53,2.72,5.89,2.72,4.31-.91,5.88-2.71c1.59-1.8,2.38-4.63,2.38-8.48s-.82-6.46-2.45-8.32-3.6-2.8-5.91-2.8-4.19.92-5.78,2.76c-1.59,1.84-2.38,4.57-2.38,8.2h.01Z"/>
    <path d="M436.86,389.45l.74,4.5c-1.44.3-2.72.45-3.85.45-1.85,0-3.28-.3-4.31-.87-1.02-.59-1.74-1.35-2.15-2.31s-.62-2.96-.62-6.01v-17.3h-3.74v-3.97h3.74v-7.45l5.06-3.06v10.51h5.13v3.97h-5.13v17.59c0,1.45.09,2.39.27,2.8s.47.75.87.99c.41.25.98.37,1.74.37.56,0,1.31-.06,2.24-.2h.01Z"/>
    <path d="M463.95,390.29c-1.89,1.6-3.71,2.74-5.45,3.4-1.75.66-3.62.99-5.62.99-3.3,0-5.84-.81-7.62-2.42-1.77-1.61-2.66-3.68-2.66-6.18,0-1.47.33-2.81,1-4.04.67-1.22,1.55-2.2,2.63-2.93s2.31-1.29,3.67-1.67c1-.27,2.5-.52,4.53-.77,4.11-.49,7.14-1.08,9.09-1.76.02-.7.03-1.14.03-1.33,0-2.08-.48-3.54-1.44-4.39-1.3-1.15-3.24-1.73-5.81-1.73-2.4,0-4.17.42-5.31,1.26-1.14.84-1.98,2.32-2.54,4.46l-4.99-.68c.46-2.13,1.19-3.86,2.24-5.17,1.03-1.31,2.54-2.32,4.5-3.03s4.24-1.07,6.82-1.07,4.66.3,6.26.91,2.78,1.36,3.54,2.28c.76.92,1.28,2.07,1.59,3.46.17.87.26,2.43.26,4.7v6.8c0,4.74.11,7.74.33,8.99.21,1.26.65,2.46,1.29,3.61h-5.32c-.53-1.06-.86-2.29-1.02-3.71v.02ZM463.53,378.9c-1.85.76-4.63,1.4-8.32,1.93-2.1.3-3.58.64-4.44,1.02s-1.53.93-2.01,1.65c-.47.72-.7,1.53-.7,2.42,0,1.35.51,2.49,1.55,3.4,1.02.91,2.54,1.36,4.52,1.36s3.71-.43,5.23-1.29,2.65-2.04,3.37-3.53c.54-1.15.82-2.85.82-5.1v-1.87h0Z"/>
    <path d="M478.96,394v-41.51h5.1v41.51h-5.1Z"/>
    <path d="M515.03,384.32l5.27.65c-.83,3.08-2.37,5.47-4.62,7.16s-5.12,2.55-8.61,2.55c-4.4,0-7.89-1.35-10.46-4.06-2.58-2.71-3.87-6.51-3.87-11.39s1.3-8.99,3.91-11.78c2.6-2.79,5.98-4.19,10.14-4.19s7.3,1.36,9.85,4.1c2.55,2.74,3.83,6.59,3.83,11.55,0,.3,0,.76-.03,1.36h-22.43c.19,3.3,1.12,5.83,2.8,7.59,1.68,1.76,3.77,2.63,6.29,2.63,1.87,0,3.46-.49,4.79-1.47s2.37-2.55,3.14-4.7h0ZM498.3,376.08h16.79c-.22-2.53-.86-4.42-1.93-5.69-1.62-1.96-3.73-2.94-6.31-2.94-2.35,0-4.31.78-5.91,2.35s-2.47,3.67-2.64,6.29h0Z"/>
    <path d="M529.19,394v-30.07h4.58v4.27c2.21-3.3,5.39-4.96,9.57-4.96,1.81,0,3.47.33,5,.98,1.52.65,2.65,1.5,3.41,2.56s1.28,2.31,1.59,3.76c.19.95.29,2.59.29,4.96v18.49h-5.1v-18.29c0-2.08-.2-3.62-.6-4.66s-1.1-1.85-2.11-2.46c-1.01-.62-2.2-.92-3.55-.92-2.17,0-4.04.69-5.62,2.07-1.58,1.38-2.37,4-2.37,7.85v16.43h-5.11Z"/>
    <path d="M575.06,389.45l.74,4.5c-1.44.3-2.72.45-3.85.45-1.85,0-3.28-.3-4.31-.87-1.02-.59-1.74-1.35-2.15-2.31s-.62-2.96-.62-6.01v-17.3h-3.74v-3.97h3.74v-7.45l5.07-3.06v10.51h5.13v3.97h-5.13v17.59c0,1.45.09,2.39.27,2.8s.47.75.87.99c.41.25.99.37,1.74.37.56,0,1.31-.06,2.24-.2h0Z"/>
    <path d="M612.27,389.45l.74,4.5c-1.44.3-2.72.45-3.85.45-1.85,0-3.28-.3-4.31-.87-1.02-.59-1.74-1.35-2.15-2.31s-.62-2.96-.62-6.01v-17.3h-3.74v-3.97h3.74v-7.45l5.06-3.06v10.51h5.13v3.97h-5.13v17.59c0,1.45.09,2.39.27,2.8s.47.75.87.99c.41.25.99.37,1.74.37.56,0,1.31-.06,2.24-.2h.01Z"/>
    <path d="M617.85,378.97c0-5.56,1.55-9.69,4.65-12.38,2.59-2.23,5.73-3.34,9.45-3.34,4.14,0,7.51,1.35,10.14,4.06s3.93,6.45,3.93,11.22c0,3.87-.58,6.92-1.74,9.13-1.16,2.22-2.85,3.94-5.06,5.17s-4.64,1.84-7.26,1.84c-4.21,0-7.61-1.35-10.21-4.05s-3.89-6.59-3.89-11.66h-.01ZM623.09,378.97c0,3.85.84,6.74,2.52,8.66,1.68,1.92,3.79,2.88,6.34,2.88s4.64-.96,6.31-2.89c1.68-1.93,2.52-4.86,2.52-8.8,0-3.72-.84-6.53-2.54-8.45-1.68-1.92-3.79-2.88-6.3-2.88s-4.67.95-6.34,2.86c-1.68,1.91-2.52,4.79-2.52,8.63h.01Z"/>
    <path d="M684.22,389.45l.74,4.5c-1.44.3-2.72.45-3.85.45-1.85,0-3.28-.3-4.31-.87-1.02-.59-1.74-1.35-2.15-2.31s-.62-2.96-.62-6.01v-17.3h-3.74v-3.97h3.74v-7.45l5.06-3.06v10.51h5.13v3.97h-5.13v17.59c0,1.45.09,2.39.27,2.8s.47.75.87.99c.41.25.99.37,1.74.37.56,0,1.31-.06,2.24-.2h.01Z"/>
    <path d="M691.7,394v-41.51h5.1v14.89c2.38-2.75,5.38-4.14,9.01-4.14,2.23,0,4.17.44,5.81,1.32,1.64.87,2.81,2.09,3.53,3.63s1.07,3.79,1.07,6.74v19.06h-5.1v-19.06c0-2.55-.55-4.4-1.65-5.56s-2.66-1.74-4.69-1.74c-1.51,0-2.93.39-4.26,1.17-1.33.79-2.28,1.84-2.85,3.19-.56,1.34-.85,3.19-.85,5.55v16.45h-5.11Z"/>
    <path d="M747.03,384.32l5.27.65c-.83,3.08-2.37,5.47-4.62,7.16-2.25,1.69-5.12,2.55-8.61,2.55-4.4,0-7.89-1.35-10.47-4.06s-3.87-6.51-3.87-11.39,1.3-8.99,3.91-11.78c2.6-2.79,5.98-4.19,10.14-4.19s7.3,1.36,9.85,4.1,3.83,6.59,3.83,11.55c0,.3,0,.76-.03,1.36h-22.43c.19,3.3,1.12,5.83,2.8,7.59s3.77,2.63,6.29,2.63c1.87,0,3.46-.49,4.79-1.47s2.37-2.55,3.14-4.7h.01ZM730.29,376.08h16.79c-.22-2.53-.86-4.42-1.93-5.69-1.62-1.96-3.73-2.94-6.31-2.94-2.35,0-4.31.78-5.91,2.35s-2.47,3.67-2.64,6.29h0Z"/>
    <path d="M781.01,394v-26.1h-4.5v-3.97h4.5v-3.2c0-2.01.18-3.52.53-4.5.49-1.32,1.35-2.39,2.59-3.21s2.97-1.24,5.2-1.24c1.44,0,3.02.17,4.75.51l-.77,4.44c-1.06-.19-2.06-.29-3.01-.29-1.55,0-2.64.33-3.28.99-.64.66-.96,1.9-.96,3.71v2.77h5.86v3.97h-5.86v26.1h-5.06Z"/>
    <path d="M818.1,394v-4.41c-2.35,3.4-5.52,5.1-9.54,5.1-1.78,0-3.43-.34-4.97-1.02-1.53-.68-2.68-1.53-3.42-2.56s-1.27-2.29-1.57-3.78c-.2-1-.31-2.59-.31-4.75v-18.63h5.1v16.68c0,2.66.11,4.46.31,5.38.32,1.34,1,2.4,2.04,3.16,1.03.77,2.32,1.15,3.85,1.15s2.96-.39,4.31-1.17c1.34-.78,2.29-1.85,2.85-3.2.55-1.35.83-3.3.83-5.87v-16.11h5.1v30.07h-4.56v-.02Z"/>
    <path d="M844.26,389.45l.74,4.5c-1.44.3-2.72.45-3.85.45-1.85,0-3.28-.3-4.31-.87-1.02-.59-1.74-1.35-2.15-2.31s-.62-2.96-.62-6.01v-17.3h-3.74v-3.97h3.74v-7.45l5.06-3.06v10.51h5.13v3.97h-5.13v17.59c0,1.45.09,2.39.27,2.8s.47.75.87.99c.41.25.99.37,1.74.37.56,0,1.31-.06,2.24-.2h.01Z"/>
    <path d="M871.45,394v-4.41c-2.35,3.4-5.52,5.1-9.54,5.1-1.78,0-3.43-.34-4.97-1.02-1.53-.68-2.68-1.53-3.42-2.56s-1.27-2.29-1.57-3.78c-.2-1-.31-2.59-.31-4.75v-18.63h5.1v16.68c0,2.66.11,4.46.31,5.38.32,1.34,1,2.4,2.04,3.16,1.03.77,2.32,1.15,3.85,1.15s2.96-.39,4.31-1.17c1.34-.78,2.29-1.85,2.85-3.2.55-1.35.83-3.3.83-5.87v-16.11h5.1v30.07h-4.56v-.02Z"/>
    <path d="M933.4,384.32l5.27.65c-.83,3.08-2.37,5.47-4.62,7.16-2.25,1.69-5.12,2.55-8.61,2.55-4.4,0-7.89-1.35-10.47-4.06s-3.87-6.51-3.87-11.39,1.3-8.99,3.91-11.78c2.6-2.79,5.98-4.19,10.14-4.19s7.3,1.36,9.85,4.1,3.83,6.59,3.83,11.55c0,.3,0,.76-.03,1.36h-22.43c.19,3.3,1.12,5.83,2.8,7.59s3.77,2.63,6.29,2.63c1.87,0,3.46-.49,4.79-1.47s2.37-2.55,3.14-4.7h.01ZM916.67,376.08h16.79c-.22-2.53-.86-4.42-1.93-5.69-1.62-1.96-3.73-2.94-6.31-2.94-2.35,0-4.31.78-5.91,2.35s-2.47,3.67-2.64,6.29h0Z"/>
    <path d="M906.23,364.04c-1.39-.52-2.9-.79-4.53-.79-4.18,0-7.37,1.65-9.57,4.96v-4.27h-4.58v30.07h.01s5.1.01,5.1.01v-16.43c0-3.85.79-6.47,2.37-7.85,1.58-1.38,3.44-2.07,5.62-2.07,1.35,0,2.54.3,3.55.92.68.41,1.21.9,1.61,1.5.17.25.55.16.57-.14l.33-5.16c.02-.33-.17-.64-.48-.76Z"/>
  </g>
  <g>
    <path class="cls-1" d="M190.52,312.45l-5.16-.02v-53.09c0-19.33-15.73-35.06-35.06-35.06s-35.06,15.73-35.06,35.06v52.81l-4.88-.02h-22.96v-106.14l.43-.06c.76-.1,76.24-10.53,136.06-41.16,37.45-19.17,73.26-49.9,96.84-72.44l-21.99-21.99,61.25.08.17,61.34-21.98-21.98c-26.12,40.31-26.03,45.26-24.95,103.1.26,14.05.59,31.54.59,53.37v44.9h-23.29l-3.42.06v-73.96c0-19.33-15.73-35.06-35.06-35.06s-35.06,15.73-35.06,35.06v75.13l-3.28.06h-23.2.01Z"/>
    <path class="cls-2" d="M299.95,70.85l59.55.08.16,59.63-21.56-21.56c-33.06,50.97-24.78,46.63-24.78,157.26v44.4h-22.79l-2.92.05v-73.45c0-19.64-15.92-35.56-35.56-35.56h0c-19.64,0-35.56,15.92-35.56,35.56v74.64l-2.79.05h-23.19l-4.66-.02v-52.59c0-19.64-15.92-35.56-35.56-35.56h0c-19.64,0-35.56,15.92-35.56,35.56v52.3l-4.37-.02h-22.46v-105.2s75.63-10.18,136.23-41.21c38.61-19.77,75.58-52.05,97.32-72.87l-.09-.09-21.41-21.41M297.54,69.85l1.71,1.71,20.77,20.77c-23.55,22.48-59.15,52.95-96.35,72-59.75,30.59-135.15,41-135.9,41.11l-.87.12v107.07h23.46l4.37.02h1v-53.3c0-19.06,15.5-34.56,34.56-34.56s34.56,15.5,34.56,34.56v53.59h1l4.66.02h23.19l2.81-.05.98-.02v-75.63c0-19.06,15.5-34.56,34.56-34.56s34.56,15.5,34.56,34.56v74.46l1.02-.02,2.92-.05h23.77v-45.4c0-21.83-.32-39.32-.59-53.38-1.07-57.45-1.16-62.6,24.54-102.3l20.69,20.69,1.71,1.71v-2.42l-.17-59.63v-1h-1l-59.55-.08h-2.42.01Z"/>
  </g>
</svg>