<?xml version="1.0" encoding="UTF-8"?>
<svg id="Camada_1" data-name="Camada 1" xmlns="http://www.w3.org/2000/svg" viewBox="0 0 2500 1035.82">
  <defs>
    <style>
      .cls-1 {
        fill: #2b2b2b;
      }

      .cls-2 {
        fill: #1f823b;
      }

      .cls-3 {
        fill: #db181f;
      }
    </style>
  </defs>
  <g>
    <path class="cls-1" d="M1041,623.59c-4.5-6.41-11.23-11.79-20.21-16.12-8.98-4.33-18.13-6.5-27.43-6.5-10.59,0-19.89,2.16-27.91,6.5-8.02,4.33-14.68,10.03-19.97,17.08-5.29,7.06-9.22,15-11.79,23.82-2.57,8.83-3.85,17.73-3.85,26.71s1.36,17.89,4.09,26.71c2.72,8.83,6.81,16.77,12.27,23.82,5.45,7.06,12.27,12.75,20.45,17.08,8.18,4.33,17.72,6.5,28.63,6.5,8.98,0,17.96-1.76,26.95-5.29,8.98-3.53,16.19-8.66,21.65-15.4l36.09,36.57c-9.62,10.27-21.89,18.21-36.81,23.82-14.92,5.61-31.04,8.42-48.36,8.42s-33.13-2.73-48.36-8.18c-15.24-5.45-28.56-13.47-39.94-24.06-11.39-10.59-20.37-23.41-26.95-38.49-6.58-15.07-9.86-32.24-9.86-51.49s3.29-35.44,9.86-50.52c6.57-15.08,15.47-27.91,26.71-38.49,11.23-10.59,24.3-18.77,39.22-24.54,14.92-5.77,30.87-8.66,47.88-8.66s33.44,3.21,49.32,9.62c15.88,6.42,28.46,15.24,37.77,26.46l-39.46,34.64Z"/>
    <path class="cls-1" d="M1253.19,761.21h-1.44c-5.77,10.27-15.08,18.69-27.91,25.26-12.83,6.57-27.43,9.87-43.79,9.87-9.31,0-19.01-1.2-29.11-3.61-10.11-2.4-19.41-6.41-27.91-12.03-8.5-5.61-15.56-12.99-21.17-22.13-5.62-9.14-8.42-20.45-8.42-33.92,0-17.32,4.89-31.11,14.68-41.38,9.78-10.26,22.38-18.12,37.77-23.58,15.4-5.45,32.48-9.06,51.24-10.83,18.77-1.76,37.13-2.65,55.1-2.65v-5.77c0-14.43-5.22-25.1-15.64-32-10.43-6.89-22.86-10.34-37.29-10.34-12.2,0-23.9,2.57-35.13,7.7-11.23,5.13-20.53,11.39-27.91,18.77l-29.83-35.13c13.15-12.19,28.31-21.33,45.47-27.43,17.16-6.09,34.56-9.14,52.21-9.14,20.52,0,37.45,2.89,50.76,8.66,13.31,5.77,23.82,13.32,31.52,22.62,7.7,9.31,13.07,19.73,16.12,31.28,3.04,11.55,4.57,23.1,4.57,34.64v140.5h-53.89v-29.35ZM1252.23,685.18h-12.99c-9.31,0-19.09.4-29.35,1.2-10.27.8-19.73,2.57-28.39,5.29-8.66,2.73-15.88,6.58-21.65,11.55-5.77,4.98-8.66,11.79-8.66,20.45,0,5.46,1.2,10.03,3.61,13.71,2.41,3.69,5.53,6.66,9.38,8.9,3.85,2.25,8.18,3.85,12.99,4.81,4.81.96,9.62,1.44,14.43,1.44,19.89,0,34.96-5.29,45.23-15.88,10.26-10.59,15.4-25.02,15.4-43.31v-8.18Z"/>
    <path class="cls-1" d="M1366.27,559.59h55.33v38.49h.96c6.41-13.47,15.4-24.37,26.95-32.72,11.55-8.34,25.02-12.51,40.42-12.51,2.24,0,4.65.08,7.22.24,2.56.17,4.81.56,6.74,1.2v52.93c-3.85-.96-7.14-1.6-9.86-1.93-2.73-.31-5.38-.48-7.94-.48-13.16,0-23.74,2.41-31.76,7.22-8.02,4.81-14.28,10.58-18.77,17.32-4.5,6.74-7.54,13.64-9.14,20.69-1.61,7.06-2.4,12.68-2.4,16.84v123.66h-57.74v-230.97Z"/>
    <path class="cls-1" d="M1744.96,677.97v7.7c0,2.57-.16,5.13-.48,7.7h-175.63c.64,8.35,2.81,15.96,6.5,22.85,3.68,6.9,8.58,12.83,14.68,17.8,6.09,4.98,12.99,8.9,20.69,11.79,7.7,2.89,15.71,4.33,24.06,4.33,14.44,0,26.62-2.65,36.57-7.94,9.94-5.29,18.12-12.59,24.54-21.89l38.49,30.8c-22.78,30.79-55.82,46.19-99.12,46.19-17.97,0-34.49-2.81-49.56-8.42-15.08-5.61-28.15-13.55-39.22-23.82-11.07-10.26-19.73-22.86-25.98-37.77-6.26-14.92-9.38-31.83-9.38-50.76s3.13-35.52,9.38-50.76c6.26-15.23,14.84-28.22,25.74-38.98,10.9-10.74,23.82-19.08,38.74-25.02,14.92-5.93,31.03-8.9,48.36-8.9,16.04,0,30.87,2.65,44.51,7.94,13.63,5.29,25.42,13.16,35.37,23.58,9.94,10.43,17.72,23.42,23.34,38.98,5.61,15.56,8.42,33.77,8.42,54.61ZM1687.22,651.98c0-7.37-1.05-14.43-3.13-21.17-2.09-6.74-5.38-12.67-9.86-17.8-4.5-5.13-10.19-9.22-17.08-12.27-6.9-3.04-15-4.57-24.3-4.57-17.32,0-32,5.22-44.03,15.64-12.03,10.43-18.69,23.82-19.97,40.18h118.37Z"/>
    <path class="cls-1" d="M2012.97,677.97v7.7c0,2.57-.16,5.13-.48,7.7h-175.63c.64,8.35,2.8,15.96,6.5,22.85,3.68,6.9,8.58,12.83,14.68,17.8,6.09,4.98,12.99,8.9,20.69,11.79,7.7,2.89,15.71,4.33,24.06,4.33,14.43,0,26.62-2.65,36.57-7.94,9.94-5.29,18.12-12.59,24.54-21.89l38.49,30.8c-22.78,30.79-55.82,46.19-99.12,46.19-17.97,0-34.49-2.81-49.56-8.42-15.08-5.61-28.15-13.55-39.22-23.82-11.07-10.26-19.73-22.86-25.98-37.77-6.26-14.92-9.38-31.83-9.38-50.76s3.13-35.52,9.38-50.76c6.26-15.23,14.83-28.22,25.74-38.98,10.9-10.74,23.82-19.08,38.74-25.02,14.92-5.93,31.04-8.9,48.36-8.9,16.04,0,30.87,2.65,44.51,7.94,13.63,5.29,25.42,13.16,35.37,23.58,9.94,10.43,17.72,23.42,23.34,38.98,5.61,15.56,8.42,33.77,8.42,54.61ZM1955.23,651.98c0-7.37-1.05-14.43-3.13-21.17-2.09-6.74-5.37-12.67-9.86-17.8-4.5-5.13-10.19-9.22-17.08-12.27-6.9-3.04-15-4.57-24.3-4.57-17.32,0-32,5.22-44.03,15.64-12.03,10.43-18.69,23.82-19.97,40.18h118.37Z"/>
    <path class="cls-1" d="M2060.6,559.59h55.34v38.49h.96c6.41-13.47,15.4-24.37,26.95-32.72,11.55-8.34,25.02-12.51,40.42-12.51,2.24,0,4.65.08,7.22.24,2.56.17,4.81.56,6.74,1.2v52.93c-3.85-.96-7.14-1.6-9.86-1.93-2.73-.31-5.38-.48-7.94-.48-13.16,0-23.74,2.41-31.76,7.22-8.02,4.81-14.28,10.58-18.77,17.32-4.5,6.74-7.54,13.64-9.14,20.69-1.61,7.06-2.41,12.68-2.41,16.84v123.66h-57.74v-230.97Z"/>
    <path class="cls-1" d="M2354.12,621.19c-5.13-6.74-12.19-12.59-21.17-17.56-8.98-4.97-18.77-7.46-29.35-7.46-9.31,0-17.8,1.92-25.5,5.77-7.7,3.85-11.55,10.27-11.55,19.25s4.25,15.32,12.75,19.01c8.5,3.69,20.93,7.46,37.29,11.31,8.66,1.92,17.4,4.5,26.22,7.7,8.82,3.21,16.84,7.46,24.06,12.75,7.22,5.29,13.07,11.87,17.56,19.73,4.49,7.86,6.74,17.4,6.74,28.63,0,14.12-2.65,26.07-7.94,35.85-5.29,9.79-12.35,17.73-21.17,23.82-8.83,6.1-19.09,10.51-30.79,13.23-11.71,2.72-23.82,4.09-36.33,4.09-17.97,0-35.45-3.29-52.45-9.86-17.01-6.57-31.12-15.95-42.34-28.15l38.01-35.61c6.41,8.35,14.75,15.24,25.02,20.69,10.26,5.46,21.65,8.18,34.16,8.18,4.16,0,8.42-.48,12.75-1.44,4.33-.96,8.34-2.48,12.03-4.57,3.68-2.08,6.65-4.89,8.9-8.42,2.24-3.53,3.37-7.86,3.37-12.99,0-9.62-4.42-16.52-13.23-20.69-8.83-4.16-22.06-8.34-39.7-12.51-8.66-1.92-17.08-4.41-25.26-7.46-8.18-3.05-15.48-7.05-21.9-12.03-6.42-4.97-11.55-11.14-15.4-18.52-3.85-7.38-5.77-16.52-5.77-27.43,0-12.83,2.65-23.89,7.94-33.2,5.29-9.3,12.27-16.92,20.93-22.86,8.66-5.93,18.44-10.35,29.35-13.23,10.9-2.89,22.13-4.33,33.68-4.33,16.68,0,32.96,2.89,48.84,8.66,15.88,5.77,28.47,14.6,37.77,26.46l-37.53,33.2Z"/>
  </g>
  <g>
    <path class="cls-1" d="M1159.9,397.54c-6.9,16.84-16.77,31.28-29.59,43.3-12.83,12.03-28.32,21.41-46.43,28.15-18.13,6.74-38.25,10.11-60.39,10.11s-42.67-3.37-60.63-10.11c-17.97-6.74-33.2-16.12-45.71-28.15-12.51-12.03-22.14-26.46-28.87-43.3-6.74-16.84-10.1-35.53-10.1-56.06v-212.2h81.8v205.46c0,9.31,1.2,18.13,3.61,26.46,2.41,8.35,6.09,15.8,11.07,22.38,4.97,6.58,11.55,11.79,19.73,15.64,8.18,3.85,18.05,5.77,29.59,5.77s21.41-1.92,29.59-5.77c8.18-3.85,14.83-9.06,19.97-15.64,5.13-6.57,8.82-14.03,11.07-22.38,2.24-8.34,3.37-17.16,3.37-26.46v-205.46h82.28v212.2c0,20.53-3.45,39.22-10.35,56.06Z"/>
    <path class="cls-1" d="M1450.78,469.96l-26.46-66.88h-131.84l-25.02,66.88h-89.5l142.91-340.67h79.88l141.47,340.67h-91.42ZM1359.35,220.23l-43.31,116.93h85.65l-42.34-116.93Z"/>
    <path class="cls-1" d="M1562.4,469.96V129.29h229.04v69.29h-149.65v64.48h141.47v65.92h-141.47v70.73h158.31v70.25h-237.7Z"/>
  </g>
  <g>
    <path class="cls-2" d="M599.13,405.35c10.49,7.39,17.48,18.43,19.68,31.07l.77,4.42c61.55-96.56,83.02-204.76-13.56-290.85-20.73-18.48-55.4-35.37-76.64-44.39,13.97,8.82,23.74,16.57,35,26.34,88.65,76.9,63.8,176.62,6.02,264.65,10.23-.25,20.23,2.77,28.74,8.76Z"/>
    <path class="cls-2" d="M229.86,413.59c1.17,1.46,2.3,3.05,3.34,4.73l.11.17c.78,1.26,1.5,2.57,2.16,3.9l.11.21c.65,1.33,1.24,2.69,1.76,4.06l.1.27c.52,1.39.97,2.79,1.35,4.19l.06.22c.39,1.46.7,2.9.94,4.33l.03.16c.25,1.51.42,2.99.53,4.45v.23c.11,1.41.14,2.91.11,4.37v.22c-.05,1.36-.13,2.61-.26,3.8l-.23,2.15c16.24-12.03,33.09-26.38,39.99-32.14,58.64-48.98,205.51-187.36,158.41-271.95-31.97-57.42-122.17-51.88-169.9-39.79-7.1,1.8-29.63,7.68-33.49,9.82,53.8-13.07,162.64-20.15,156.83,60.76-4.29,59.78-85.72,138.49-129.34,176.61-9.24,8.07-36.45,27.67-56.26,43.32,9.27,2.75,17.48,8.22,23.66,15.92Z"/>
    <path class="cls-2" d="M328.11,87.38c-6.67,1.02-10.59,2.03-10.59,2.03,3.11-.53,6.62-1.24,10.59-2.03Z"/>
    <path class="cls-2" d="M411.77,426.43c1.31,1.23,2.6,2.59,3.83,4.05l.19.22c.98,1.17,1.91,2.4,2.77,3.66l.11.17c.84,1.24,1.62,2.51,2.33,3.8l.14.26c.7,1.29,1.34,2.61,1.91,3.94l.15.35c.53,1.25,1.04,2.63,1.48,4.02l.08.24c.43,1.37.81,2.81,1.12,4.24l.04.17c.3,1.44.54,2.91.71,4.36l.03.25c.15,1.41.24,2.62.28,3.78l.12,3.92c40.72-41.03,89.19-104.21,104.5-131.81,66.36-119.58,15.24-236.65-113.67-249.07-44.04-4.24-71.73.82-89.75,4.39,12.99-1.98,36.44-3.98,61.91,1.39,171.75,36.25,108.83,192.61,27.69,285.42-6.84,7.82-23.49,23.24-40.26,39.25,12.78-.38,24.98,4.23,34.31,12.99Z"/>
    <path class="cls-2" d="M720.24,624.22c50.94-71.27,69.59-160.69,53.13-246.73l-.33-1.72s2.29,43.74-2.16,65.3c-35.26,170.97-195.87,278.58-294.02,335.73-4.68,2.72-15.79,9.41-27.95,16.77-17.12,10.36-4.13,36.52,14.47,29.12,12.59-5.01,23.52-10.41,28.23-12.7,82.27-40.01,170.78-104.83,228.63-185.76Z"/>
    <path class="cls-2" d="M268.52,263.85c-11.73,9.62,1.77,29.34,13.98,20.34,30.74-22.66,44.36-38.56,59-62.58,43.83-71.95,7.04-102.5-73.06-102.38,0,0,41.86,6.07,58.22,23.29,35.91,37.8-43.83,109.59-58.13,121.33Z"/>
    <path class="cls-3" d="M188.45,592.82c-6.32,3.8-12.29,8.81-17.8,14.44-20.52,20.96,4.06,54.91,30.12,41.44,8.45-4.37,15.23-9.52,18.38-15.43,12.97-24.3-6.08-55.24-30.7-40.45Z"/>
    <path class="cls-3" d="M444.81,679.07c-5.73,2.2-11.43,5.6-17.06,10.02-24.99,19.63-.57,58.44,27.91,44.34,8.53-4.23,15.3-8.86,18.55-13.78,14.75-22.31-6.43-49.42-29.41-40.59Z"/>
    <path class="cls-2" d="M791.08,569.27c-10.17,29.01-24.58,56.36-42.82,81.11-23.1,31.34-72.01,85.96-119.05,120.77-4.97,3.68-13.52,10.04-22.04,16.38-8.89,6.62-.04,20.32,9.63,14.9,7.96-4.47,15.42-10.47,23.18-15.69,69.03-46.36,155.52-143.46,151.1-217.47Z"/>
    <path class="cls-3" d="M259.97,695.15c-.07,0-10.3,0-26.11,15.01-17.97,17.07,1.15,46.52,24.01,36.97,2.47-1.03,4.87-2.2,7.14-3.52,22.98-13.34,21.38-45.63-5.04-48.47Z"/>
    <path class="cls-2" d="M257.93,207.56c-7.31,7.48-12.34,12.58-17.54,17.88-4.01,4.09-4.49,10.65-.76,15.01,2.17,2.53,5.3,3.9,9.73,1.33,17.23-10.03,37.47-33.95,41.48-39.75,37.61-54.44,7.02-73.18-35.46-73.18,26.28,2.36,51.36,28.83,2.56,78.72Z"/>
    <path class="cls-3" d="M247.34,283.72c-11,2.44-26.96,19.25-27.02,31.06-.13,27.6,33.82-.04,37.59-8.74,4.57-10.56,4.7-25.71-10.58-22.33Z"/>
    <path class="cls-2" d="M218.16,176.35c-9.74,6.2-.06,18.35,10.79,14.4,11.47-4.18,29.45-18,30.98-33.89,1.38-14.42-11.76-22.71-27.68-21.09,11.28.6,32.15,11.14-14.09,40.58Z"/>
    <path class="cls-3" d="M408.7,813.75c-7.73,2.25-15.43,6.34-23.43,11.82-15.66,10.74-4.79,35.51,13.69,31.15,7.43-1.75,14.28-4.19,20.03-7.61,17.8-10.59,13.86-42.41-10.29-35.37Z"/>
    <path class="cls-2" d="M199.53,160.24c6.66-2.08,13.61-11.28,9.52-14.75-3.46-2.94-10.93,1.88-14.8,7.45-2.59,3.72.95,8.66,5.27,7.3Z"/>
    <path class="cls-3" d="M301.32,446.12c-4.6,4.9-7.01,11.3-6.8,18.03.25,7.84,4.05,14.99,10.43,19.6l11.4,8.24-10.39,9.48c-18.23,16.63-36.45,30.97-54.16,42.62-11.59,7.63-14.82,23.27-7.19,34.87,5.08,7.72,13.96,12.03,23.18,11.25,4.14-.35,8.18-1.75,11.68-4.06,21.32-14.03,43.06-31.31,64.64-51.34l9.13-8.48,7.67,9.82c5.01,6.41,12.53,9.95,20.65,9.69h0c.46-.01.91-.04,1.36-.08,13.32-1.13,23.43-12.5,23-25.88l-1.12-35.29c-8.26,6.93-15.71,12.15-21.87,14.95-27.95,12.73-58.85-7.61-49.95-37.03,1.49-4.92,9.62-14.35,20.38-25.41l-34.47,1.09c-6.73.21-12.97,3.03-17.57,7.93Z"/>
    <path class="cls-3" d="M382.93,499.54c6.16-2.8,13.61-8.02,21.87-14.95l-.76-23.91c-.02-.59-.07-1.24-.15-2l-.02-.17c-.09-.73-.21-1.48-.37-2.23l-.04-.19c-.14-.64-.34-1.39-.57-2.14l-.06-.2c-.2-.63-.47-1.35-.77-2.06l-.06-.15c-.3-.69-.63-1.38-.99-2.05l-.08-.15c-.37-.67-.77-1.33-1.2-1.97l-.11-.16c-.39-.57-.83-1.16-1.3-1.73l-.16-.19c-.68-.81-1.37-1.54-2.05-2.19-4.7-4.41-10.78-6.82-17.2-6.82-.27,0-.55,0-.82.01l-24.73.78c-10.76,11.05-18.89,20.49-20.38,25.41-8.9,29.43,22,49.76,49.95,37.03Z"/>
    <path class="cls-3" d="M117.74,417.7c-5.23,4.21-8.51,10.22-9.24,16.91-.85,7.8,1.92,15.41,7.6,20.87l.71.68.58.79c25.38,34.58,45.11,55.93,45.3,56.14l.88.94.65,1.12c4.07,7.04,11.02,11.59,19.08,12.47.46.05.91.09,1.37.11,13.35.73,24.94-9.11,26.39-22.42l4.15-38.22c-3.9,1.92-7.15,3-9.39,2.85-23.85-1.55-32.37-33.37-21.45-52.43l-48.12-5.22c-6.7-.73-13.26,1.19-18.5,5.4Z"/>
    <path class="cls-3" d="M205.81,469.95c2.23.14,5.49-.94,9.39-2.85l2.24-20.67c.06-.58.1-1.24.13-2v-.17c.02-.69,0-1.47-.05-2.25v-.19c-.06-.66-.15-1.43-.28-2.2-.14-.86-.31-1.61-.51-2.36-.24-.87-.47-1.6-.74-2.32l-.08-.22c-.25-.65-.56-1.36-.9-2.06-.41-.83-.81-1.54-1.23-2.22l-.09-.14c-.55-.87-1.11-1.66-1.68-2.37-4.21-5.23-10.21-8.52-16.89-9.24l-10.77-1.17c-10.92,19.06-2.4,50.88,21.45,52.43Z"/>
    <path class="cls-3" d="M602.15,517.5c3.07-4.36,4.62-9.47,4.57-14.7l-17.99,24.32c5.42-1.6,10.12-4.93,13.42-9.62Z"/>
    <path class="cls-3" d="M552.29,422.42l-43.5,7.55c-4.14.72-7.85,2.43-10.97,4.82l31.69,16.43c7.84-9.36,15.48-18.98,22.78-28.8Z"/>
    <path class="cls-3" d="M604.92,490.32l-3.88-22.35c-3.58,4.92-7.25,9.8-11,14.64l14.88,7.72Z"/>
    <path class="cls-3" d="M590.04,482.6c3.75-4.83,7.42-9.71,11-14.64l-4.79-27.63c-1.15-6.62-4.81-12.41-10.31-16.28-4.29-3.02-9.3-4.6-14.45-4.6-1.45,0-2.9.13-4.36.38l-14.85,2.58c-7.31,9.82-14.94,19.43-22.78,28.8l60.54,31.39Z"/>
    <path class="cls-3" d="M606.38,498.7l-1.45-8.38-14.88-7.72c-9.37,12.08-19.23,23.88-29.4,35.32l3.92,3.6c4.85,4.44,11.09,6.81,17.56,6.65,1.24-.03,2.51-.15,3.75-.37.97-.17,1.92-.41,2.85-.68l17.99-24.32c-.01-1.36-.11-2.73-.35-4.1Z"/>
    <path class="cls-3" d="M364.59,679.61c-22.57,7.09-44.98-4.76-49.04-23.36-3.84,3.44-6.54,7.95-7.72,13.08-1.5,6.55-.37,13.3,3.2,19,4.77,7.61,12.97,12,21.96,11.8,4.49-.11,8.9-1.43,12.73-3.84,37.94-23.77,70.39-47.47,98.03-70.09-6.25,4.79-12.37,9.33-18.33,13.62-14.85,10.68-45.24,34.89-60.84,39.79Z"/>
    <path class="cls-3" d="M497.82,434.78c-7.2,5.52-11.18,14.75-9.52,24.29,1.37,7.9,6.49,14.73,13.71,18.28l3.12,1.54c8.26-8.93,16.43-18.17,24.39-27.67l-31.69-16.43Z"/>
    <path class="cls-3" d="M529.51,451.21c-7.96,9.5-16.13,18.75-24.39,27.67l9.8,4.83-9.12,11.15c-2.06,2.52-4.21,5.1-6.46,7.75-57.25,67.29-129.67,119.27-180.34,151.03-1.24.78-2.38,1.66-3.45,2.62,4.06,18.6,26.48,30.45,49.04,23.36,15.6-4.9,45.99-29.11,60.84-39.79,5.96-4.28,12.08-8.83,18.33-13.62,48.52-39.7,82.15-76.02,104.16-103.42l7.65-9.52,5.08,4.65c10.17-11.44,20.03-23.24,29.4-35.32l-60.54-31.39Z"/>
    <path class="cls-2" d="M611.32,540.76c-13.19,15.21-26.72,29.6-40.02,43-14.61,14.73-58.58,46.1-65.88,60.44-17.04,33.45,19.36,47.5,47.74,31.35,13.58-7.73,58.33-50.02,71.35-63.29,103.84-105.91,181.66-263.81,67.62-392.95,7.98,9.47,9.79,21.11,13.84,33.51,32.29,98.96-18.54,195.69-82.24,273.25-.87,1.58-1.81,3.12-2.86,4.61-2.72,3.86-5.94,7.24-9.54,10.09Z"/>
    <path class="cls-2" d="M620.86,530.67c1.05-1.49,2-3.03,2.86-4.61-4.09,4.98-8.23,9.88-12.41,14.7,3.61-2.85,6.82-6.23,9.54-10.09Z"/>
  </g>
  <g>
    <path class="cls-1" d="M950.42,907.62l9.61,2.43c-2.01,7.89-5.64,13.91-10.87,18.06-5.25,4.15-11.64,6.21-19.2,6.21s-14.19-1.59-19.1-4.78c-4.9-3.19-8.65-7.81-11.2-13.84s-3.85-12.53-3.85-19.48c0-7.58,1.44-14.16,4.32-19.8,2.89-5.64,7-9.91,12.34-12.83,5.34-2.92,11.22-4.38,17.61-4.38,7.28,0,13.37,1.86,18.34,5.55,4.97,3.69,8.42,8.89,10.36,15.61l-9.45,2.24c-1.68-5.29-4.13-9.14-7.33-11.55-3.2-2.42-7.25-3.62-12.09-3.62-5.58,0-10.24,1.35-13.98,4.01s-6.39,6.27-7.91,10.78c-1.51,4.52-2.28,9.15-2.28,13.95,0,6.18.89,11.57,2.71,16.17,1.79,4.6,4.6,8.05,8.4,10.34,3.8,2.28,7.91,3.41,12.34,3.41,5.39,0,9.94-1.54,13.67-4.66,3.73-3.1,6.27-7.7,7.58-13.83h.02l-.04-.02Z"/>
    <path class="cls-1" d="M971.77,906.78c0-9.73,2.71-16.96,8.14-21.67,4.53-3.9,10.03-5.85,16.54-5.85,7.25,0,13.14,2.36,17.75,7.11,4.59,4.74,6.88,11.29,6.88,19.64,0,6.77-1.02,12.11-3.05,15.98s-4.99,6.9-8.86,9.05-8.12,3.22-12.71,3.22c-7.37,0-13.32-2.36-17.87-7.09-4.55-4.73-6.81-11.53-6.81-20.41h-.02v.02ZM980.94,906.78c0,6.74,1.47,11.8,4.41,15.16,2.94,3.36,6.63,5.04,11.1,5.04s8.12-1.68,11.04-5.06c2.94-3.38,4.41-8.51,4.41-15.4,0-6.51-1.47-11.43-4.45-14.79-2.94-3.36-6.63-5.04-11.03-5.04s-8.16,1.66-11.1,5.01c-2.94,3.34-4.41,8.38-4.41,15.1h.02v-.02Z"/>
    <path class="cls-1" d="M1035.9,933.08v-52.63h8.02v7.47c3.87-5.78,9.43-8.68,16.75-8.68,3.17,0,6.07.58,8.75,1.72,2.66,1.14,4.64,2.63,5.97,4.48,1.33,1.86,2.24,4.04,2.78,6.58.33,1.66.51,4.53.51,8.68v32.36h-8.93v-32.01c0-3.64-.35-6.34-1.05-8.16-.7-1.82-1.93-3.24-3.69-4.31-1.77-1.09-3.85-1.61-6.21-1.61-3.8,0-7.07,1.21-9.84,3.62-2.77,2.42-4.15,7-4.15,13.74v28.76h-8.94l.04-.02Z"/>
    <path class="cls-1" d="M1096.7,933.08v-52.63h8.02v7.47c3.87-5.78,9.43-8.68,16.75-8.68,3.17,0,6.07.58,8.75,1.72,2.66,1.14,4.64,2.63,5.97,4.48,1.33,1.86,2.24,4.04,2.78,6.58.33,1.66.51,4.53.51,8.68v32.36h-8.93v-32.01c0-3.64-.35-6.34-1.05-8.16s-1.93-3.24-3.69-4.31c-1.77-1.09-3.85-1.61-6.21-1.61-3.8,0-7.07,1.21-9.84,3.62s-4.15,7-4.15,13.74v28.76h-8.94l.04-.02Z"/>
    <path class="cls-1" d="M1193.54,916.14l9.22,1.14c-1.45,5.39-4.15,9.57-8.09,12.53s-8.96,4.46-15.07,4.46c-7.7,0-13.81-2.36-18.31-7.11-4.52-4.74-6.77-11.39-6.77-19.94s2.28-15.73,6.84-20.62c4.55-4.88,10.47-7.33,17.75-7.33s12.78,2.38,17.24,7.18c4.46,4.8,6.7,11.53,6.7,20.22,0,.53,0,1.33-.05,2.38h-39.26c.33,5.78,1.96,10.2,4.9,13.28s6.6,4.6,11.01,4.6c3.27,0,6.06-.86,8.38-2.57,2.33-1.72,4.15-4.46,5.5-8.23h0ZM1164.25,901.72h29.39c-.39-4.43-1.51-7.74-3.38-9.96-2.84-3.43-6.53-5.15-11.04-5.15-4.11,0-7.54,1.37-10.34,4.11-2.8,2.75-4.32,6.42-4.62,11.01h0v-.02Z"/>
    <path class="cls-1" d="M1252.67,913.81l8.77,1.14c-.95,6.04-3.41,10.78-7.35,14.19-3.96,3.41-8.79,5.13-14.54,5.13-7.19,0-12.99-2.35-17.36-7.07-4.38-4.71-6.56-11.45-6.56-20.25,0-5.67.93-10.66,2.82-14.93s4.76-7.46,8.59-9.59c3.83-2.14,8.03-3.19,12.55-3.19,5.71,0,10.4,1.45,14.04,4.32,3.64,2.89,5.97,7,7,12.32l-8.68,1.35c-.82-3.52-2.29-6.2-4.38-7.98s-4.62-2.66-7.61-2.66c-4.5,0-8.16,1.61-10.96,4.83s-4.22,8.31-4.22,15.28,1.37,12.2,4.06,15.4c2.7,3.2,6.25,4.81,10.59,4.81,3.5,0,6.42-1.09,8.77-3.22,2.35-2.15,3.83-5.44,4.46-9.91h.02v.02Z"/>
    <path class="cls-1" d="M1292.9,925.12l1.3,7.88c-2.52.53-4.76.79-6.74.79-3.24,0-5.74-.53-7.54-1.52-1.79-1.03-3.05-2.36-3.76-4.04-.72-1.68-1.09-5.18-1.09-10.52v-30.28h-6.55v-6.95h6.55v-13.04l8.86-5.36v18.39h8.98v6.95h-8.98v30.79c0,2.54.16,4.18.47,4.9s.82,1.31,1.52,1.73c.72.44,1.72.65,3.05.65.98,0,2.29-.11,3.92-.35h.02v-.02Z"/>
    <path class="cls-1" d="M1306.03,870.69v-10.26h8.93v10.26h-8.93ZM1306.03,933.08v-52.63h8.93v52.63h-8.93Z"/>
    <path class="cls-1" d="M1332.9,933.08v-52.63h8.02v7.47c3.87-5.78,9.43-8.68,16.75-8.68,3.17,0,6.07.58,8.75,1.72,2.66,1.14,4.64,2.63,5.97,4.48s2.24,4.04,2.78,6.58c.33,1.66.51,4.53.51,8.68v32.36h-8.93v-32.01c0-3.64-.35-6.34-1.05-8.16s-1.93-3.24-3.69-4.31c-1.77-1.09-3.85-1.61-6.21-1.61-3.8,0-7.07,1.21-9.84,3.62-2.77,2.42-4.15,7-4.15,13.74v28.76h-8.94l.03-.02Z"/>
    <path class="cls-1" d="M1392.07,937.44l8.68,1.3c.35,2.66,1.37,4.62,3.03,5.85,2.22,1.65,5.25,2.49,9.07,2.49,4.13,0,7.32-.82,9.57-2.49,2.24-1.66,3.76-3.96,4.55-6.95.47-1.8.67-5.64.65-11.45-3.9,4.59-8.75,6.88-14.56,6.88-7.25,0-12.83-2.61-16.78-7.84-3.96-5.22-5.95-11.48-5.95-18.78,0-5.02.91-9.64,2.73-13.9,1.8-4.24,4.46-7.53,7.91-9.84,3.45-2.31,7.49-3.47,12.16-3.47,6.21,0,11.32,2.52,15.35,7.54v-6.34h8.23v45.49c0,8.19-.84,13.98-2.5,17.43-1.66,3.41-4.31,6.13-7.93,8.1-3.62,1.98-8.09,2.96-13.35,2.96-6.28,0-11.34-1.42-15.23-4.24-3.87-2.82-5.72-7.07-5.6-12.76v.03l-.02-.03ZM1399.46,905.81c0,6.9,1.37,11.94,4.11,15.1s6.18,4.76,10.31,4.76,7.54-1.59,10.29-4.74c2.78-3.15,4.17-8.1,4.17-14.84s-1.44-11.31-4.29-14.56c-2.85-3.26-6.3-4.9-10.34-4.9s-7.33,1.61-10.12,4.83c-2.78,3.22-4.17,8-4.17,14.35h.03Z"/>
    <path class="cls-1" d="M1506.57,925.12l1.3,7.88c-2.52.53-4.76.79-6.74.79-3.24,0-5.74-.53-7.54-1.52-1.79-1.03-3.05-2.36-3.76-4.04s-1.09-5.18-1.09-10.52v-30.28h-6.55v-6.95h6.55v-13.04l8.86-5.36v18.39h8.98v6.95h-8.98v30.79c0,2.54.16,4.18.47,4.9s.82,1.31,1.52,1.73c.72.44,1.72.65,3.05.65.98,0,2.29-.11,3.92-.35h.02v-.02Z"/>
    <path class="cls-1" d="M1553.99,926.59c-3.31,2.8-6.49,4.8-9.54,5.95-3.06,1.16-6.34,1.73-9.84,1.73-5.78,0-10.22-1.42-13.34-4.24-3.1-2.82-4.66-6.44-4.66-10.82,0-2.57.58-4.92,1.75-7.07,1.17-2.14,2.71-3.85,4.6-5.13s4.04-2.26,6.42-2.92c1.75-.47,4.38-.91,7.93-1.35,7.19-.86,12.5-1.89,15.91-3.08.03-1.23.05-2,.05-2.33,0-3.64-.84-6.2-2.52-7.68-2.28-2.01-5.67-3.03-10.17-3.03-4.2,0-7.3.74-9.29,2.21-2,1.47-3.47,4.06-4.45,7.81l-8.73-1.19c.81-3.73,2.08-6.76,3.92-9.05,1.8-2.29,4.45-4.06,7.88-5.3s7.42-1.87,11.94-1.87,8.16.53,10.96,1.59,4.87,2.38,6.2,3.99c1.33,1.61,2.24,3.62,2.78,6.06.3,1.52.46,4.25.46,8.23v11.9c0,8.3.19,13.55.58,15.73.37,2.21,1.14,4.31,2.26,6.32h-9.31c-.93-1.86-1.51-4.01-1.79-6.49v.03h0ZM1553.25,906.65c-3.24,1.33-8.1,2.45-14.56,3.38-3.68.53-6.27,1.12-7.77,1.79-1.51.67-2.68,1.63-3.52,2.89-.82,1.26-1.23,2.68-1.23,4.24,0,2.36.89,4.36,2.71,5.95,1.79,1.59,4.45,2.38,7.91,2.38s6.49-.75,9.15-2.26c2.66-1.51,4.64-3.57,5.9-6.18.95-2.01,1.44-4.99,1.44-8.93v-3.27h0l-.03.02Z"/>
    <path class="cls-1" d="M1580.26,933.08v-72.65h8.93v72.65h-8.93Z"/>
    <path class="cls-1" d="M1643.39,916.14l9.22,1.14c-1.45,5.39-4.15,9.57-8.09,12.53-3.94,2.96-8.96,4.46-15.07,4.46-7.7,0-13.81-2.36-18.31-7.11-4.52-4.74-6.77-11.39-6.77-19.94s2.28-15.73,6.84-20.62c4.55-4.88,10.47-7.33,17.75-7.33s12.78,2.38,17.24,7.18c4.46,4.8,6.7,11.53,6.7,20.22,0,.53,0,1.33-.05,2.38h-39.26c.33,5.78,1.96,10.2,4.9,13.28,2.94,3.08,6.6,4.6,11.01,4.6,3.27,0,6.06-.86,8.38-2.57,2.33-1.72,4.15-4.46,5.5-8.23h0ZM1614.11,901.72h29.39c-.38-4.43-1.51-7.74-3.38-9.96-2.84-3.43-6.53-5.15-11.04-5.15-4.11,0-7.54,1.37-10.34,4.11s-4.32,6.42-4.62,11.01h0v-.02Z"/>
    <path class="cls-1" d="M1668.17,933.08v-52.63h8.02v7.47c3.87-5.78,9.43-8.68,16.75-8.68,3.17,0,6.07.58,8.75,1.72,2.66,1.14,4.64,2.63,5.97,4.48s2.24,4.04,2.78,6.58c.33,1.66.51,4.53.51,8.68v32.36h-8.93v-32.01c0-3.64-.35-6.34-1.05-8.16s-1.93-3.24-3.69-4.31c-1.77-1.09-3.85-1.61-6.21-1.61-3.8,0-7.07,1.21-9.84,3.62s-4.15,7-4.15,13.74v28.76h-8.94l.03-.02Z"/>
    <path class="cls-1" d="M1748.45,925.12l1.3,7.88c-2.52.53-4.76.79-6.74.79-3.24,0-5.74-.53-7.54-1.52-1.79-1.03-3.05-2.36-3.76-4.04-.72-1.68-1.09-5.18-1.09-10.52v-30.28h-6.55v-6.95h6.55v-13.04l8.87-5.36v18.39h8.98v6.95h-8.98v30.79c0,2.54.16,4.18.47,4.9s.82,1.31,1.52,1.73c.72.44,1.73.65,3.05.65.98,0,2.29-.11,3.92-.35h0v-.02Z"/>
    <path class="cls-1" d="M1813.58,925.12l1.3,7.88c-2.52.53-4.76.79-6.74.79-3.24,0-5.74-.53-7.54-1.52-1.79-1.03-3.05-2.36-3.76-4.04-.72-1.68-1.09-5.18-1.09-10.52v-30.28h-6.55v-6.95h6.55v-13.04l8.86-5.36v18.39h8.98v6.95h-8.98v30.79c0,2.54.16,4.18.47,4.9s.82,1.31,1.52,1.73c.72.44,1.73.65,3.05.65.98,0,2.29-.11,3.92-.35h.02v-.02Z"/>
    <path class="cls-1" d="M1823.35,906.78c0-9.73,2.71-16.96,8.14-21.67,4.53-3.9,10.03-5.85,16.54-5.85,7.25,0,13.14,2.36,17.75,7.11s6.88,11.29,6.88,19.64c0,6.77-1.02,12.11-3.05,15.98-2.03,3.89-4.99,6.9-8.86,9.05-3.87,2.15-8.12,3.22-12.71,3.22-7.37,0-13.32-2.36-17.87-7.09-4.55-4.73-6.81-11.53-6.81-20.41h-.02v.02ZM1832.52,906.78c0,6.74,1.47,11.8,4.41,15.16s6.63,5.04,11.1,5.04,8.12-1.68,11.04-5.06c2.94-3.38,4.41-8.51,4.41-15.4,0-6.51-1.47-11.43-4.45-14.79-2.94-3.36-6.63-5.04-11.03-5.04s-8.17,1.66-11.1,5.01c-2.94,3.34-4.41,8.38-4.41,15.1h.02v-.02Z"/>
    <path class="cls-1" d="M1939.51,925.12l1.3,7.88c-2.52.53-4.76.79-6.74.79-3.24,0-5.74-.53-7.54-1.52-1.79-1.03-3.05-2.36-3.76-4.04-.72-1.68-1.09-5.18-1.09-10.52v-30.28h-6.55v-6.95h6.55v-13.04l8.86-5.36v18.39h8.98v6.95h-8.98v30.79c0,2.54.16,4.18.47,4.9s.82,1.31,1.52,1.73c.72.44,1.73.65,3.05.65.98,0,2.29-.11,3.92-.35h.02v-.02Z"/>
    <path class="cls-1" d="M1952.6,933.08v-72.65h8.93v26.06c4.17-4.81,9.42-7.25,15.77-7.25,3.9,0,7.3.77,10.17,2.31,2.87,1.52,4.92,3.66,6.18,6.35,1.26,2.7,1.87,6.63,1.87,11.8v33.36h-8.93v-33.36c0-4.46-.96-7.7-2.89-9.73s-4.66-3.05-8.21-3.05c-2.64,0-5.13.68-7.46,2.05-2.33,1.38-3.99,3.22-4.99,5.58-.98,2.35-1.49,5.58-1.49,9.71v28.79h-8.94l-.02.02Z"/>
    <path class="cls-1" d="M2049.44,916.14l9.22,1.14c-1.45,5.39-4.15,9.57-8.09,12.53-3.94,2.96-8.96,4.46-15.07,4.46-7.7,0-13.81-2.36-18.32-7.11-4.52-4.74-6.77-11.39-6.77-19.94s2.28-15.73,6.84-20.62c4.55-4.88,10.47-7.33,17.75-7.33s12.78,2.38,17.24,7.18c4.46,4.8,6.7,11.53,6.7,20.22,0,.53,0,1.33-.05,2.38h-39.26c.33,5.78,1.96,10.2,4.9,13.28,2.94,3.08,6.6,4.6,11.01,4.6,3.27,0,6.06-.86,8.38-2.57s4.15-4.46,5.5-8.23h.02ZM2020.14,901.72h29.39c-.38-4.43-1.51-7.74-3.38-9.96-2.84-3.43-6.53-5.15-11.04-5.15-4.11,0-7.54,1.37-10.34,4.11s-4.32,6.42-4.62,11.01h0v-.02Z"/>
    <path class="cls-1" d="M2108.91,933.08v-45.68h-7.88v-6.95h7.88v-5.6c0-3.52.32-6.16.93-7.88.86-2.31,2.36-4.18,4.53-5.62,2.17-1.44,5.2-2.17,9.1-2.17,2.52,0,5.29.3,8.31.89l-1.35,7.77c-1.86-.33-3.61-.51-5.27-.51-2.71,0-4.62.58-5.74,1.73s-1.68,3.33-1.68,6.49v4.85h10.26v6.95h-10.26v45.68h-8.86l.02.04Z"/>
    <path class="cls-1" d="M2173.83,933.08v-7.72c-4.11,5.95-9.66,8.93-16.7,8.93-3.12,0-6-.6-8.7-1.79-2.68-1.19-4.69-2.68-5.99-4.48s-2.22-4.01-2.75-6.62c-.35-1.75-.54-4.53-.54-8.31v-32.61h8.93v29.19c0,4.66.19,7.81.54,9.42.56,2.35,1.75,4.2,3.57,5.53,1.8,1.35,4.06,2.01,6.74,2.01s5.18-.68,7.54-2.05c2.35-1.37,4.01-3.24,4.99-5.6.96-2.36,1.45-5.78,1.45-10.27v-28.2h8.93v52.63h-7.98v-.03l-.03-.03Z"/>
    <path class="cls-1" d="M2219.62,925.12l1.3,7.88c-2.52.53-4.76.79-6.74.79-3.24,0-5.74-.53-7.54-1.52-1.79-1.03-3.05-2.36-3.76-4.04s-1.09-5.18-1.09-10.52v-30.28h-6.55v-6.95h6.55v-13.04l8.86-5.36v18.39h8.98v6.95h-8.98v30.79c0,2.54.16,4.18.47,4.9s.82,1.31,1.52,1.73c.72.44,1.73.65,3.05.65.98,0,2.29-.11,3.92-.35h.02v-.02Z"/>
    <path class="cls-1" d="M2267.21,933.08v-7.72c-4.11,5.95-9.66,8.93-16.7,8.93-3.12,0-6-.6-8.7-1.79-2.68-1.19-4.69-2.68-5.99-4.48s-2.22-4.01-2.75-6.62c-.35-1.75-.54-4.53-.54-8.31v-32.61h8.93v29.19c0,4.66.19,7.81.54,9.42.56,2.35,1.75,4.2,3.57,5.53,1.8,1.35,4.06,2.01,6.74,2.01s5.18-.68,7.54-2.05c2.35-1.37,4.01-3.24,4.99-5.6.96-2.36,1.45-5.78,1.45-10.27v-28.2h8.93v52.63h-7.98v-.03l-.03-.03Z"/>
    <path class="cls-1" d="M2375.63,916.14l9.22,1.14c-1.45,5.39-4.15,9.57-8.09,12.53-3.94,2.96-8.96,4.46-15.07,4.46-7.7,0-13.81-2.36-18.32-7.11-4.52-4.74-6.77-11.39-6.77-19.94s2.28-15.73,6.84-20.62c4.55-4.88,10.47-7.33,17.75-7.33s12.78,2.38,17.24,7.18,6.7,11.53,6.7,20.22c0,.53,0,1.33-.05,2.38h-39.26c.33,5.78,1.96,10.2,4.9,13.28,2.94,3.08,6.6,4.6,11.01,4.6,3.27,0,6.06-.86,8.38-2.57,2.33-1.72,4.15-4.46,5.5-8.23h.02ZM2346.35,901.72h29.39c-.38-4.43-1.51-7.74-3.38-9.96-2.84-3.43-6.53-5.15-11.04-5.15-4.11,0-7.54,1.37-10.34,4.11s-4.32,6.42-4.62,11.01h0v-.02Z"/>
    <path class="cls-1" d="M2328.08,880.64c-2.43-.91-5.08-1.38-7.93-1.38-7.32,0-12.9,2.89-16.75,8.68v-7.47h-8.02v52.63h.02l8.93.02v-28.76c0-6.74,1.38-11.32,4.15-13.74,2.77-2.42,6.02-3.62,9.84-3.62,2.36,0,4.45.53,6.21,1.61,1.19.72,2.12,1.58,2.82,2.63.3.44.96.28,1-.25l.58-9.03c.04-.58-.3-1.12-.84-1.33v.02Z"/>
  </g>
</svg>