<?xml version="1.0" encoding="UTF-8"?>
<svg id="Camada_1" data-name="Camada 1" xmlns="http://www.w3.org/2000/svg" viewBox="0 0 878.17 1035.82">
  <defs>
    <style>
      .cls-1 {
        fill: #1f823b;
      }

      .cls-2 {
        fill: #db181f;
      }
    </style>
  </defs>
  <path class="cls-1" d="M588.41,453.95c10.49,7.39,17.48,18.43,19.68,31.07l.77,4.42c61.55-96.56,83.02-204.76-13.56-290.85-20.73-18.48-55.4-35.37-76.64-44.39,13.97,8.82,23.74,16.57,35,26.34,88.65,76.9,63.8,176.62,6.02,264.65,10.23-.25,20.23,2.77,28.74,8.76Z"/>
  <path class="cls-1" d="M219.15,462.19c1.17,1.46,2.3,3.05,3.34,4.73l.11.17c.78,1.26,1.5,2.57,2.16,3.9l.11.21c.65,1.33,1.24,2.69,1.76,4.06l.1.27c.52,1.39.97,2.79,1.35,4.19l.06.22c.39,1.46.7,2.9.94,4.33l.03.16c.25,1.51.42,2.99.53,4.45v.23c.11,1.41.14,2.91.11,4.37v.22c-.05,1.36-.13,2.61-.26,3.8l-.23,2.15c16.24-12.03,33.09-26.38,39.99-32.14,58.64-48.98,205.51-187.36,158.41-271.95-31.97-57.42-122.17-51.88-169.9-39.79-7.1,1.8-29.63,7.68-33.49,9.82,53.8-13.07,162.64-20.15,156.83,60.76-4.29,59.78-85.72,138.49-129.34,176.61-9.24,8.07-36.45,27.67-56.26,43.32,9.27,2.75,17.48,8.22,23.66,15.92Z"/>
  <path class="cls-1" d="M317.4,135.98c-6.67,1.02-10.59,2.03-10.59,2.03,3.11-.53,6.62-1.24,10.59-2.03Z"/>
  <path class="cls-1" d="M401.06,475.03c1.31,1.23,2.6,2.59,3.83,4.05l.19.22c.98,1.17,1.91,2.4,2.77,3.66l.11.17c.84,1.24,1.62,2.51,2.33,3.8l.14.26c.7,1.29,1.34,2.61,1.91,3.94l.15.35c.53,1.25,1.04,2.63,1.48,4.02l.08.24c.43,1.37.81,2.81,1.12,4.24l.04.17c.3,1.44.54,2.91.71,4.36l.03.25c.15,1.41.24,2.62.28,3.78l.12,3.92c40.72-41.03,89.19-104.21,104.5-131.81,66.36-119.58,15.24-236.65-113.67-249.07-44.04-4.24-71.73.82-89.75,4.39,12.99-1.98,36.44-3.98,61.91,1.39,171.75,36.25,108.83,192.61,27.69,285.42-6.84,7.82-23.49,23.24-40.26,39.25,12.78-.38,24.98,4.23,34.31,12.99Z"/>
  <path class="cls-1" d="M709.53,672.81c50.94-71.27,69.59-160.69,53.13-246.73l-.33-1.72s2.29,43.74-2.16,65.3c-35.26,170.97-195.87,278.58-294.02,335.73-4.68,2.72-15.79,9.41-27.95,16.77-17.12,10.36-4.13,36.52,14.47,29.12,12.59-5.01,23.52-10.41,28.23-12.7,82.27-40.01,170.78-104.83,228.63-185.76Z"/>
  <path class="cls-1" d="M257.81,312.45c-11.73,9.62,1.77,29.34,13.98,20.34,30.74-22.66,44.36-38.56,59-62.58,43.83-71.95,7.04-102.5-73.06-102.38,0,0,41.86,6.07,58.22,23.29,35.91,37.8-43.83,109.59-58.13,121.33Z"/>
  <path class="cls-2" d="M177.74,641.42c-6.32,3.8-12.29,8.81-17.8,14.44-20.52,20.96,4.06,54.91,30.12,41.44,8.45-4.37,15.23-9.52,18.38-15.43,12.97-24.3-6.08-55.24-30.7-40.45Z"/>
  <path class="cls-2" d="M434.1,727.67c-5.73,2.2-11.43,5.6-17.06,10.02-24.99,19.63-.57,58.44,27.91,44.34,8.53-4.23,15.3-8.86,18.55-13.78,14.75-22.31-6.43-49.42-29.41-40.59Z"/>
  <path class="cls-1" d="M780.37,617.87c-10.17,29.01-24.58,56.36-42.82,81.11-23.1,31.34-72.01,85.96-119.05,120.77-4.97,3.68-13.52,10.04-22.04,16.38-8.89,6.62-.04,20.32,9.63,14.9,7.96-4.47,15.42-10.47,23.18-15.69,69.03-46.36,155.52-143.46,151.1-217.47Z"/>
  <path class="cls-2" d="M249.26,743.74c-.07,0-10.3,0-26.11,15.01-17.97,17.07,1.15,46.52,24.01,36.97,2.47-1.03,4.87-2.2,7.14-3.52,22.98-13.34,21.38-45.63-5.04-48.47Z"/>
  <path class="cls-1" d="M247.22,256.15c-7.31,7.48-12.34,12.58-17.54,17.88-4.01,4.09-4.49,10.65-.76,15.01,2.17,2.53,5.3,3.9,9.73,1.33,17.23-10.03,37.47-33.95,41.48-39.75,37.61-54.44,7.02-73.18-35.46-73.18,26.28,2.36,51.36,28.83,2.56,78.72Z"/>
  <path class="cls-2" d="M236.63,332.32c-11,2.44-26.96,19.25-27.02,31.06-.13,27.6,33.82-.04,37.59-8.74,4.57-10.56,4.7-25.71-10.58-22.33Z"/>
  <path class="cls-1" d="M207.45,224.95c-9.74,6.2-.06,18.35,10.79,14.4,11.47-4.18,29.45-18,30.98-33.89,1.38-14.42-11.76-22.71-27.68-21.09,11.28.6,32.15,11.14-14.09,40.58Z"/>
  <path class="cls-2" d="M397.99,862.35c-7.73,2.25-15.43,6.34-23.43,11.82-15.66,10.74-4.79,35.51,13.69,31.15,7.43-1.75,14.28-4.19,20.03-7.61,17.8-10.59,13.86-42.41-10.29-35.37Z"/>
  <path class="cls-1" d="M188.82,208.84c6.66-2.08,13.61-11.28,9.52-14.75-3.46-2.94-10.93,1.88-14.8,7.45-2.59,3.72.95,8.66,5.27,7.3Z"/>
  <path class="cls-2" d="M290.61,494.71c-4.6,4.9-7.01,11.3-6.8,18.03.25,7.84,4.05,14.99,10.43,19.6l11.4,8.24-10.39,9.48c-18.23,16.63-36.45,30.97-54.16,42.62-11.59,7.63-14.82,23.27-7.19,34.87,5.08,7.72,13.96,12.03,23.18,11.25,4.14-.35,8.18-1.75,11.68-4.06,21.32-14.03,43.06-31.31,64.64-51.34l9.13-8.48,7.67,9.82c5.01,6.41,12.53,9.95,20.65,9.69h0c.46-.01.91-.04,1.36-.08,13.32-1.13,23.43-12.5,23-25.88l-1.12-35.29c-8.26,6.93-15.71,12.15-21.87,14.95-27.95,12.73-58.85-7.61-49.95-37.03,1.49-4.92,9.62-14.35,20.38-25.41l-34.47,1.09c-6.73.21-12.97,3.03-17.57,7.93Z"/>
  <path class="cls-2" d="M372.22,548.14c6.16-2.8,13.61-8.02,21.87-14.95l-.76-23.91c-.02-.59-.07-1.24-.15-2l-.02-.17c-.09-.73-.21-1.48-.37-2.23l-.04-.19c-.14-.64-.34-1.39-.57-2.14l-.06-.2c-.2-.63-.47-1.35-.77-2.06l-.06-.15c-.3-.69-.63-1.38-.99-2.05l-.08-.15c-.37-.67-.77-1.33-1.2-1.97l-.11-.16c-.39-.57-.83-1.16-1.3-1.73l-.16-.19c-.68-.81-1.37-1.54-2.05-2.19-4.7-4.41-10.78-6.82-17.2-6.82-.27,0-.55,0-.82.01l-24.73.78c-10.76,11.05-18.89,20.49-20.38,25.41-8.9,29.43,22,49.76,49.95,37.03Z"/>
  <path class="cls-2" d="M107.03,466.3c-5.23,4.21-8.51,10.22-9.24,16.91-.85,7.8,1.92,15.41,7.6,20.87l.71.68.58.79c25.38,34.58,45.11,55.93,45.3,56.14l.88.94.65,1.12c4.07,7.04,11.02,11.59,19.08,12.47.46.05.91.09,1.37.11,13.35.73,24.94-9.11,26.39-22.42l4.15-38.22c-3.9,1.92-7.15,3-9.39,2.85-23.85-1.55-32.37-33.37-21.45-52.43l-48.12-5.22c-6.7-.73-13.26,1.19-18.5,5.4Z"/>
  <path class="cls-2" d="M195.1,518.54c2.23.14,5.49-.94,9.39-2.85l2.24-20.67c.06-.58.1-1.24.13-2v-.17c.02-.69,0-1.47-.05-2.25v-.19c-.06-.66-.15-1.43-.28-2.2-.14-.86-.31-1.61-.51-2.36-.24-.87-.47-1.6-.74-2.32l-.08-.22c-.25-.65-.56-1.36-.9-2.06-.41-.83-.81-1.54-1.23-2.22l-.09-.14c-.55-.87-1.11-1.66-1.68-2.37-4.21-5.23-10.21-8.52-16.89-9.24l-10.77-1.17c-10.92,19.06-2.4,50.88,21.45,52.43Z"/>
  <path class="cls-2" d="M591.44,566.09c3.07-4.36,4.62-9.47,4.57-14.7l-17.99,24.32c5.42-1.6,10.12-4.93,13.42-9.62Z"/>
  <path class="cls-2" d="M541.58,471.01l-43.5,7.55c-4.14.72-7.85,2.43-10.97,4.82l31.69,16.43c7.84-9.36,15.48-18.98,22.78-28.8Z"/>
  <path class="cls-2" d="M594.21,538.92l-3.88-22.35c-3.58,4.92-7.25,9.8-11,14.64l14.88,7.72Z"/>
  <path class="cls-2" d="M579.33,531.2c3.75-4.83,7.42-9.71,11-14.64l-4.79-27.63c-1.15-6.62-4.81-12.41-10.31-16.28-4.29-3.02-9.3-4.6-14.45-4.6-1.45,0-2.9.13-4.36.38l-14.85,2.58c-7.31,9.82-14.94,19.43-22.78,28.8l60.54,31.39Z"/>
  <path class="cls-2" d="M595.67,547.3l-1.45-8.38-14.88-7.72c-9.37,12.08-19.23,23.88-29.4,35.32l3.92,3.6c4.85,4.44,11.09,6.81,17.56,6.65,1.24-.03,2.51-.15,3.75-.37.97-.17,1.92-.41,2.85-.68l17.99-24.32c-.01-1.36-.11-2.73-.35-4.1Z"/>
  <path class="cls-2" d="M353.88,728.21c-22.57,7.09-44.98-4.76-49.04-23.36-3.84,3.44-6.54,7.95-7.72,13.08-1.5,6.55-.37,13.3,3.2,19,4.77,7.61,12.97,12,21.96,11.8,4.49-.11,8.9-1.43,12.73-3.84,37.94-23.77,70.39-47.47,98.03-70.09-6.25,4.79-12.37,9.33-18.33,13.62-14.85,10.68-45.24,34.89-60.84,39.79Z"/>
  <path class="cls-2" d="M487.1,483.38c-7.2,5.52-11.18,14.75-9.52,24.29,1.37,7.9,6.49,14.73,13.71,18.28l3.12,1.54c8.26-8.93,16.43-18.17,24.39-27.67l-31.69-16.43Z"/>
  <path class="cls-2" d="M518.8,499.81c-7.96,9.5-16.13,18.75-24.39,27.67l9.8,4.83-9.12,11.15c-2.06,2.52-4.21,5.1-6.46,7.75-57.25,67.29-129.67,119.27-180.34,151.03-1.24.78-2.38,1.66-3.45,2.62,4.06,18.6,26.48,30.45,49.04,23.36,15.6-4.9,45.99-29.11,60.84-39.79,5.96-4.28,12.08-8.83,18.33-13.62,48.52-39.7,82.15-76.02,104.16-103.42l7.65-9.52,5.08,4.65c10.17-11.44,20.03-23.24,29.4-35.32l-60.54-31.39Z"/>
  <path class="cls-1" d="M600.61,589.36c-13.19,15.21-26.72,29.6-40.02,43-14.61,14.73-58.58,46.1-65.88,60.44-17.04,33.45,19.36,47.5,47.74,31.35,13.58-7.73,58.33-50.02,71.35-63.29,103.84-105.91,181.66-263.81,67.62-392.95,7.98,9.47,9.79,21.11,13.84,33.51,32.29,98.96-18.54,195.69-82.24,273.25-.87,1.58-1.81,3.12-2.86,4.61-2.72,3.86-5.94,7.24-9.54,10.09Z"/>
  <path class="cls-1" d="M610.15,579.27c1.05-1.49,2-3.03,2.86-4.61-4.09,4.98-8.23,9.88-12.41,14.7,3.61-2.85,6.82-6.23,9.54-10.09Z"/>
</svg>